<svg width="44" height="44" viewBox="0 0 44 44" fill="none" xmlns="http://www.w3.org/2000/svg">
    <g clip-path="url(#clip0_250_5680)">
        <path opacity="0.08" fill-rule="evenodd" clip-rule="evenodd" d="M22 44C34.1503 44 44 34.1503 44 22C44 9.84974 34.1503 0 22 0C9.84974 0 0 9.84974 0 22C0 34.1503 9.84974 44 22 44Z" fill="black"/>
        <g filter="url(#filter0_d_250_5680)">
            <path fill-rule="evenodd" clip-rule="evenodd" d="M22 30C26.4183 30 30 26.4183 30 22C30 17.5817 26.4183 14 22 14C17.5817 14 14 17.5817 14 22C14 26.4183 17.5817 30 22 30Z" fill="white"/>
        </g>
        <path fill-rule="evenodd" clip-rule="evenodd" d="M22 28C25.3137 28 28 25.3137 28 22C28 18.6863 25.3137 16 22 16C18.6863 16 16 18.6863 16 22C16 25.3137 18.6863 28 22 28Z" fill="#FC5F33"/>
    </g>
    <defs>
        <filter id="filter0_d_250_5680" x="6" y="6" width="32" height="32" filterUnits="userSpaceOnUse" color-interpolation-filters="sRGB">
            <feFlood flood-opacity="0" result="BackgroundImageFix"/>
            <feColorMatrix in="SourceAlpha" type="matrix" values="0 0 0 0 0 0 0 0 0 0 0 0 0 0 0 0 0 0 127 0" result="hardAlpha"/>
            <feOffset/>
            <feGaussianBlur stdDeviation="4"/>
            <feColorMatrix type="matrix" values="0 0 0 0 0 0 0 0 0 0 0 0 0 0 0 0 0 0 0.4 0"/>
            <feBlend mode="normal" in2="BackgroundImageFix" result="effect1_dropShadow_250_5680"/>
            <feBlend mode="normal" in="SourceGraphic" in2="effect1_dropShadow_250_5680" result="shape"/>
        </filter>
        <clipPath id="clip0_250_5680">
            <rect width="44" height="44" fill="white"/>
        </clipPath>
    </defs>
</svg>
