<svg width="24" height="24" viewBox="0 0 24 24" fill="none" xmlns="http://www.w3.org/2000/svg">
<g clip-path="url(#clip0_898_396)">
<path fill-rule="evenodd" clip-rule="evenodd" d="M12 2.25C6.61522 2.25 2.25 6.61522 2.25 12C2.25 17.3848 6.61522 21.75 12 21.75C17.3848 21.75 21.75 17.3848 21.75 12C21.7443 6.61758 17.3824 2.25568 12 2.25ZM16.8356 7.66781L13.8356 13.6678C13.7989 13.7401 13.7401 13.7989 13.6678 13.8356L7.66781 16.8356C7.52334 16.9082 7.34862 16.88 7.2343 16.7657C7.11997 16.6514 7.09179 16.4767 7.16437 16.3322L10.1644 10.3322C10.2011 10.2599 10.2599 10.2011 10.3322 10.1644L16.3322 7.16437C16.4767 7.09179 16.6514 7.11997 16.7657 7.2343C16.88 7.34862 16.9082 7.52334 16.8356 7.66781Z" fill="white"/>
</g>
<defs>
<clipPath id="clip0_898_396">
<rect width="24" height="24" fill="white"/>
</clipPath>
</defs>
</svg>
